<svg xmlns="http://www.w3.org/2000/svg" version="1.1" preserveAspectRatio="xMidYMid meet" viewBox="0 0 1265 60090.7">
  <rect fill="blue" height="0.1" stroke="black" width="12" x="15" y="59790.6"/>
  <text x="15" y="59795.7" font-family="Tahoma" font-size="12" transform="rotate(90 15,59795.7)" text-rendering="optimizeSpeed" fill="#000000">HP-UX (PA_RISC2.0W) (1)</text>
  <rect fill="blue" height="0.1" stroke="black" width="12" x="30" y="59790.6"/>
  <text x="30" y="59795.7" font-family="Tahoma" font-size="12" transform="rotate(90 30,59795.7)" text-rendering="optimizeSpeed" fill="#000000">MidnightBSD (i386) (1)</text>
  <rect fill="blue" height="0.1" stroke="black" width="12" x="45" y="59790.6"/>
  <text x="45" y="59795.7" font-family="Tahoma" font-size="12" transform="rotate(90 45,59795.7)" text-rendering="optimizeSpeed" fill="#000000">NetBSD (i386) (1)</text>
  <rect fill="blue" height="0.1" stroke="black" width="12" x="60" y="59790.6"/>
  <text x="60" y="59795.7" font-family="Tahoma" font-size="12" transform="rotate(90 60,59795.7)" text-rendering="optimizeSpeed" fill="#000000">OS/400 (ppc) (1)</text>
  <rect fill="blue" height="0.1" stroke="black" width="12" x="75" y="59790.6"/>
  <text x="75" y="59795.7" font-family="Tahoma" font-size="12" transform="rotate(90 75,59795.7)" text-rendering="optimizeSpeed" fill="#000000">QNX (aarch64) (1)</text>
  <rect fill="blue" height="0.1" stroke="black" width="12" x="90" y="59790.6"/>
  <text x="90" y="59795.7" font-family="Tahoma" font-size="12" transform="rotate(90 90,59795.7)" text-rendering="optimizeSpeed" fill="#000000">QNX (amd64) (1)</text>
  <rect fill="blue" height="0.1" stroke="black" width="12" x="105" y="59790.6"/>
  <text x="105" y="59795.7" font-family="Tahoma" font-size="12" transform="rotate(90 105,59795.7)" text-rendering="optimizeSpeed" fill="#000000">Windows 10 (aarch64) (1)</text>
  <rect fill="blue" height="0.1" stroke="black" width="12" x="120" y="59790.6"/>
  <text x="120" y="59795.7" font-family="Tahoma" font-size="12" transform="rotate(90 120,59795.7)" text-rendering="optimizeSpeed" fill="#000000">Windows Server 2022 (aarch64) (1)</text>
  <rect fill="blue" height="0.1" stroke="black" width="12" x="135" y="59790.6"/>
  <text x="135" y="59795.7" font-family="Tahoma" font-size="12" transform="rotate(90 135,59795.7)" text-rendering="optimizeSpeed" fill="#000000">Windows XP (amd64) (1)</text>
  <rect fill="blue" height="0.2" stroke="black" width="12" x="150" y="59790.5"/>
  <text x="150" y="59795.7" font-family="Tahoma" font-size="12" transform="rotate(90 150,59795.7)" text-rendering="optimizeSpeed" fill="#000000">Linux (e2k) (2)</text>
  <rect fill="blue" height="0.2" stroke="black" width="12" x="165" y="59790.5"/>
  <text x="165" y="59795.7" font-family="Tahoma" font-size="12" transform="rotate(90 165,59795.7)" text-rendering="optimizeSpeed" fill="#000000">MidnightBSD (amd64) (2)</text>
  <rect fill="blue" height="0.2" stroke="black" width="12" x="180" y="59790.5"/>
  <text x="180" y="59795.7" font-family="Tahoma" font-size="12" transform="rotate(90 180,59795.7)" text-rendering="optimizeSpeed" fill="#000000">NetBSD (amd64) (2)</text>
  <rect fill="blue" height="0.2" stroke="black" width="12" x="195" y="59790.5"/>
  <text x="195" y="59795.7" font-family="Tahoma" font-size="12" transform="rotate(90 195,59795.7)" text-rendering="optimizeSpeed" fill="#000000">OpenBSD (aarch64) (2)</text>
  <rect fill="blue" height="0.3" stroke="black" width="12" x="210" y="59790.4"/>
  <text x="210" y="59795.7" font-family="Tahoma" font-size="12" transform="rotate(90 210,59795.7)" text-rendering="optimizeSpeed" fill="#000000">NONSTOP_KERNEL (IA64N) (3)</text>
  <rect fill="blue" height="0.3" stroke="black" width="12" x="225" y="59790.4"/>
  <text x="225" y="59795.7" font-family="Tahoma" font-size="12" transform="rotate(90 225,59795.7)" text-rendering="optimizeSpeed" fill="#000000">NONSTOP_KERNEL (amd64) (3)</text>
  <rect fill="blue" height="0.4" stroke="black" width="12" x="240" y="59790.3"/>
  <text x="240" y="59795.7" font-family="Tahoma" font-size="12" transform="rotate(90 240,59795.7)" text-rendering="optimizeSpeed" fill="#000000">NONSTOP_KERNEL (x86_64N) (4)</text>
  <rect fill="blue" height="0.4" stroke="black" width="12" x="255" y="59790.3"/>
  <text x="255" y="59795.7" font-family="Tahoma" font-size="12" transform="rotate(90 255,59795.7)" text-rendering="optimizeSpeed" fill="#000000">Windows Server 2016 Standard (amd64) (4)</text>
  <rect fill="blue" height="0.6" stroke="black" width="12" x="270" y="59790.1"/>
  <text x="270" y="59795.7" font-family="Tahoma" font-size="12" transform="rotate(90 270,59795.7)" text-rendering="optimizeSpeed" fill="#000000">Linux (ppc) (6)</text>
  <rect fill="blue" height="0.8" stroke="black" width="12" x="285" y="59789.9"/>
  <text x="285" y="59795.7" font-family="Tahoma" font-size="12" transform="rotate(90 285,59795.7)" text-rendering="optimizeSpeed" fill="#000000">HP-UX (PA_RISC2.0) (8)</text>
  <rect fill="blue" height="0.8" stroke="black" width="12" x="300" y="59789.9"/>
  <text x="300" y="59795.7" font-family="Tahoma" font-size="12" transform="rotate(90 300,59795.7)" text-rendering="optimizeSpeed" fill="#000000">Windows 2003 (amd64) (8)</text>
  <rect fill="blue" height="1.0" stroke="black" width="12" x="315" y="59789.7"/>
  <text x="315" y="59795.7" font-family="Tahoma" font-size="12" transform="rotate(90 315,59795.7)" text-rendering="optimizeSpeed" fill="#000000">OS400 (ppc64) (10)</text>
  <rect fill="blue" height="1.1" stroke="black" width="12" x="330" y="59789.6"/>
  <text x="330" y="59795.7" font-family="Tahoma" font-size="12" transform="rotate(90 330,59795.7)" text-rendering="optimizeSpeed" fill="#000000">FreeBSD (aarch64) (11)</text>
  <rect fill="blue" height="1.2" stroke="black" width="12" x="345" y="59789.5"/>
  <text x="345" y="59795.7" font-family="Tahoma" font-size="12" transform="rotate(90 345,59795.7)" text-rendering="optimizeSpeed" fill="#000000">FreeBSD (i386) (12)</text>
  <rect fill="blue" height="1.9" stroke="black" width="12" x="360" y="59788.8"/>
  <text x="360" y="59795.7" font-family="Tahoma" font-size="12" transform="rotate(90 360,59795.7)" text-rendering="optimizeSpeed" fill="#000000">Linux (x86) (19)</text>
  <rect fill="blue" height="2.0" stroke="black" width="12" x="375" y="59788.7"/>
  <text x="375" y="59795.7" font-family="Tahoma" font-size="12" transform="rotate(90 375,59795.7)" text-rendering="optimizeSpeed" fill="#000000">Windows Server version 2009 (amd64) (20)</text>
  <rect fill="blue" height="2.3" stroke="black" width="12" x="390" y="59788.4"/>
  <text x="390" y="59795.7" font-family="Tahoma" font-size="12" transform="rotate(90 390,59795.7)" text-rendering="optimizeSpeed" fill="#000000">Linux (sw64) (23)</text>
  <rect fill="blue" height="2.5" stroke="black" width="12" x="405" y="59788.2"/>
  <text x="405" y="59795.7" font-family="Tahoma" font-size="12" transform="rotate(90 405,59795.7)" text-rendering="optimizeSpeed" fill="#000000">Windows 11 (aarch64) (25)</text>
  <rect fill="blue" height="2.6" stroke="black" width="12" x="420" y="59788.1"/>
  <text x="420" y="59795.7" font-family="Tahoma" font-size="12" transform="rotate(90 420,59795.7)" text-rendering="optimizeSpeed" fill="#000000">Windows Vista (x86) (26)</text>
  <rect fill="blue" height="2.7" stroke="black" width="12" x="435" y="59788.0"/>
  <text x="435" y="59795.7" font-family="Tahoma" font-size="12" transform="rotate(90 435,59795.7)" text-rendering="optimizeSpeed" fill="#000000">AIX (ppc) (27)</text>
  <rect fill="blue" height="2.8" stroke="black" width="12" x="450" y="59787.9"/>
  <text x="450" y="59795.7" font-family="Tahoma" font-size="12" transform="rotate(90 450,59795.7)" text-rendering="optimizeSpeed" fill="#000000">OpenBSD (amd64) (28)</text>
  <rect fill="blue" height="2.8" stroke="black" width="12" x="465" y="59787.9"/>
  <text x="465" y="59795.7" font-family="Tahoma" font-size="12" transform="rotate(90 465,59795.7)" text-rendering="optimizeSpeed" fill="#000000">SunOS (sparc) (28)</text>
  <rect fill="blue" height="2.9" stroke="black" width="12" x="480" y="59787.8"/>
  <text x="480" y="59795.7" font-family="Tahoma" font-size="12" transform="rotate(90 480,59795.7)" text-rendering="optimizeSpeed" fill="#000000">Windows 8 (x86) (29)</text>
  <rect fill="blue" height="3.3" stroke="black" width="12" x="495" y="59787.4"/>
  <text x="495" y="59795.7" font-family="Tahoma" font-size="12" transform="rotate(90 495,59795.7)" text-rendering="optimizeSpeed" fill="#000000">HP-UX (IA64W) (33)</text>
  <rect fill="blue" height="3.7" stroke="black" width="12" x="510" y="59787.0"/>
  <text x="510" y="59795.7" font-family="Tahoma" font-size="12" transform="rotate(90 510,59795.7)" text-rendering="optimizeSpeed" fill="#000000">Linux (ppc64) (37)</text>
  <rect fill="blue" height="3.8" stroke="black" width="12" x="525" y="59786.9"/>
  <text x="525" y="59795.7" font-family="Tahoma" font-size="12" transform="rotate(90 525,59795.7)" text-rendering="optimizeSpeed" fill="#000000">Linux (mips64el) (38)</text>
  <rect fill="blue" height="4.2" stroke="black" width="12" x="540" y="59786.5"/>
  <text x="540" y="59795.7" font-family="Tahoma" font-size="12" transform="rotate(90 540,59795.7)" text-rendering="optimizeSpeed" fill="#000000">SunOS (x86) (42)</text>
  <rect fill="blue" height="4.5" stroke="black" width="12" x="555" y="59786.2"/>
  <text x="555" y="59795.7" font-family="Tahoma" font-size="12" transform="rotate(90 555,59795.7)" text-rendering="optimizeSpeed" fill="#000000">Windows Server 2008 (x86) (45)</text>
  <rect fill="blue" height="4.9" stroke="black" width="12" x="570" y="59785.8"/>
  <text x="570" y="59795.7" font-family="Tahoma" font-size="12" transform="rotate(90 570,59795.7)" text-rendering="optimizeSpeed" fill="#000000">Windows 8 (amd64) (49)</text>
  <rect fill="blue" height="6.3" stroke="black" width="12" x="585" y="59784.4"/>
  <text x="585" y="59795.7" font-family="Tahoma" font-size="12" transform="rotate(90 585,59795.7)" text-rendering="optimizeSpeed" fill="#000000">Windows 2003 (x86) (63)</text>
  <rect fill="blue" height="6.3" stroke="black" width="12" x="600" y="59784.4"/>
  <text x="600" y="59795.7" font-family="Tahoma" font-size="12" transform="rotate(90 600,59795.7)" text-rendering="optimizeSpeed" fill="#000000">Windows Server 2008 (amd64) (63)</text>
  <rect fill="blue" height="7.1" stroke="black" width="12" x="615" y="59783.6"/>
  <text x="615" y="59795.7" font-family="Tahoma" font-size="12" transform="rotate(90 615,59795.7)" text-rendering="optimizeSpeed" fill="#000000">Linux (riscv64) (71)</text>
  <rect fill="blue" height="8.7" stroke="black" width="12" x="630" y="59782.0"/>
  <text x="630" y="59795.7" font-family="Tahoma" font-size="12" transform="rotate(90 630,59795.7)" text-rendering="optimizeSpeed" fill="#000000">Windows XP (x86) (87)</text>
  <rect fill="blue" height="10.2" stroke="black" width="12" x="645" y="59780.5"/>
  <text x="645" y="59795.7" font-family="Tahoma" font-size="12" transform="rotate(90 645,59795.7)" text-rendering="optimizeSpeed" fill="#000000">Linux (loongarch64) (102)</text>
  <rect fill="blue" height="11.2" stroke="black" width="12" x="660" y="59779.5"/>
  <text x="660" y="59795.7" font-family="Tahoma" font-size="12" transform="rotate(90 660,59795.7)" text-rendering="optimizeSpeed" fill="#000000">OS/400 (ppc64) (112)</text>
  <rect fill="blue" height="14.3" stroke="black" width="12" x="675" y="59776.4"/>
  <text x="675" y="59795.7" font-family="Tahoma" font-size="12" transform="rotate(90 675,59795.7)" text-rendering="optimizeSpeed" fill="#000000">Windows Server 2012 (x86) (143)</text>
  <rect fill="blue" height="15.8" stroke="black" width="12" x="690" y="59774.9"/>
  <text x="690" y="59795.7" font-family="Tahoma" font-size="12" transform="rotate(90 690,59795.7)" text-rendering="optimizeSpeed" fill="#000000">HP-UX (IA64N) (158)</text>
  <rect fill="blue" height="18.9" stroke="black" width="12" x="705" y="59771.8"/>
  <text x="705" y="59795.7" font-family="Tahoma" font-size="12" transform="rotate(90 705,59795.7)" text-rendering="optimizeSpeed" fill="#000000">Windows 8.1 (x86) (189)</text>
  <rect fill="blue" height="23.8" stroke="black" width="12" x="720" y="59766.9"/>
  <text x="720" y="59795.7" font-family="Tahoma" font-size="12" transform="rotate(90 720,59795.7)" text-rendering="optimizeSpeed" fill="#000000">Windows Server 2022 (x86) (238)</text>
  <rect fill="blue" height="26.1" stroke="black" width="12" x="735" y="59764.6"/>
  <text x="735" y="59795.7" font-family="Tahoma" font-size="12" transform="rotate(90 735,59795.7)" text-rendering="optimizeSpeed" fill="#000000">z/OS (s390x) (261)</text>
  <rect fill="blue" height="26.2" stroke="black" width="12" x="750" y="59764.5"/>
  <text x="750" y="59795.7" font-family="Tahoma" font-size="12" transform="rotate(90 750,59795.7)" text-rendering="optimizeSpeed" fill="#000000">SunOS (amd64) (262)</text>
  <rect fill="blue" height="28.6" stroke="black" width="12" x="765" y="59762.1"/>
  <text x="765" y="59795.7" font-family="Tahoma" font-size="12" transform="rotate(90 765,59795.7)" text-rendering="optimizeSpeed" fill="#000000">Windows 11 (x86) (286)</text>
  <rect fill="blue" height="28.6" stroke="black" width="12" x="780" y="59762.1"/>
  <text x="780" y="59795.7" font-family="Tahoma" font-size="12" transform="rotate(90 780,59795.7)" text-rendering="optimizeSpeed" fill="#000000">Windows 8.1 (amd64) (286)</text>
  <rect fill="blue" height="34.7" stroke="black" width="12" x="795" y="59756.0"/>
  <text x="795" y="59795.7" font-family="Tahoma" font-size="12" transform="rotate(90 795,59795.7)" text-rendering="optimizeSpeed" fill="#000000">Linux (s390x) (347)</text>
  <rect fill="blue" height="37.6" stroke="black" width="12" x="810" y="59753.1"/>
  <text x="810" y="59795.7" font-family="Tahoma" font-size="12" transform="rotate(90 810,59795.7)" text-rendering="optimizeSpeed" fill="#000000">Windows NT (unknown) (x86) (376)</text>
  <rect fill="blue" height="43.7" stroke="black" width="12" x="825" y="59747.0"/>
  <text x="825" y="59795.7" font-family="Tahoma" font-size="12" transform="rotate(90 825,59795.7)" text-rendering="optimizeSpeed" fill="#000000">Windows Server 2008 R2 (x86) (437)</text>
  <rect fill="blue" height="53.8" stroke="black" width="12" x="840" y="59736.9"/>
  <text x="840" y="59795.7" font-family="Tahoma" font-size="12" transform="rotate(90 840,59795.7)" text-rendering="optimizeSpeed" fill="#000000">Linux (ppc64le) (538)</text>
  <rect fill="blue" height="59.7" stroke="black" width="12" x="855" y="59731.0"/>
  <text x="855" y="59795.7" font-family="Tahoma" font-size="12" transform="rotate(90 855,59795.7)" text-rendering="optimizeSpeed" fill="#000000">FreeBSD (amd64) (597)</text>
  <rect fill="blue" height="61.0" stroke="black" width="12" x="870" y="59729.7"/>
  <text x="870" y="59795.7" font-family="Tahoma" font-size="12" transform="rotate(90 870,59795.7)" text-rendering="optimizeSpeed" fill="#000000">SunOS (sparcv9) (610)</text>
  <rect fill="blue" height="73.2" stroke="black" width="12" x="885" y="59717.5"/>
  <text x="885" y="59795.7" font-family="Tahoma" font-size="12" transform="rotate(90 885,59795.7)" text-rendering="optimizeSpeed" fill="#000000">Windows Server 2012 (amd64) (732)</text>
  <rect fill="blue" height="75.1" stroke="black" width="12" x="900" y="59715.6"/>
  <text x="900" y="59795.7" font-family="Tahoma" font-size="12" transform="rotate(90 900,59795.7)" text-rendering="optimizeSpeed" fill="#000000">Windows 7 (x86) (751)</text>
  <rect fill="blue" height="94.8" stroke="black" width="12" x="915" y="59695.9"/>
  <text x="915" y="59795.7" font-family="Tahoma" font-size="12" transform="rotate(90 915,59795.7)" text-rendering="optimizeSpeed" fill="#000000">Windows NT (unknown) (amd64) (948)</text>
  <rect fill="blue" height="124.7" stroke="black" width="12" x="930" y="59666.0"/>
  <text x="930" y="59795.7" font-family="Tahoma" font-size="12" transform="rotate(90 930,59795.7)" text-rendering="optimizeSpeed" fill="#000000">Windows Server 2012 R2 (x86) (1247)</text>
  <rect fill="blue" height="144.8" stroke="black" width="12" x="945" y="59645.9"/>
  <text x="945" y="59795.7" font-family="Tahoma" font-size="12" transform="rotate(90 945,59795.7)" text-rendering="optimizeSpeed" fill="#000000">Windows Server 2019 (x86) (1448)</text>
  <rect fill="blue" height="158.6" stroke="black" width="12" x="960" y="59632.1"/>
  <text x="960" y="59795.7" font-family="Tahoma" font-size="12" transform="rotate(90 960,59795.7)" text-rendering="optimizeSpeed" fill="#000000">Windows Server 2008 R2 (amd64) (1586)</text>
  <rect fill="blue" height="165.0" stroke="black" width="12" x="975" y="59625.7"/>
  <text x="975" y="59795.7" font-family="Tahoma" font-size="12" transform="rotate(90 975,59795.7)" text-rendering="optimizeSpeed" fill="#000000">AIX (ppc64) (1650)</text>
  <rect fill="blue" height="208.2" stroke="black" width="12" x="990" y="59582.5"/>
  <text x="990" y="59795.7" font-family="Tahoma" font-size="12" transform="rotate(90 990,59795.7)" text-rendering="optimizeSpeed" fill="#000000">Linux (arm) (2082)</text>
  <rect fill="blue" height="211.7" stroke="black" width="12" x="1005" y="59579.0"/>
  <text x="1005" y="59795.7" font-family="Tahoma" font-size="12" transform="rotate(90 1005,59795.7)" text-rendering="optimizeSpeed" fill="#000000">Windows 7 (amd64) (2117)</text>
  <rect fill="blue" height="264.6" stroke="black" width="12" x="1020" y="59526.1"/>
  <text x="1020" y="59795.7" font-family="Tahoma" font-size="12" transform="rotate(90 1020,59795.7)" text-rendering="optimizeSpeed" fill="#000000">Windows Server 2016 (x86) (2646)</text>
  <rect fill="blue" height="280.2" stroke="black" width="12" x="1035" y="59510.5"/>
  <text x="1035" y="59795.7" font-family="Tahoma" font-size="12" transform="rotate(90 1035,59795.7)" text-rendering="optimizeSpeed" fill="#000000">Linux (i386) (2802)</text>
  <rect fill="blue" height="394.5" stroke="black" width="12" x="1050" y="59396.2"/>
  <text x="1050" y="59795.7" font-family="Tahoma" font-size="12" transform="rotate(90 1050,59795.7)" text-rendering="optimizeSpeed" fill="#000000">Windows 10 (x86) (3945)</text>
  <rect fill="blue" height="680.0" stroke="black" width="12" x="1065" y="59110.7"/>
  <text x="1065" y="59795.7" font-family="Tahoma" font-size="12" transform="rotate(90 1065,59795.7)" text-rendering="optimizeSpeed" fill="#000000">Windows Server 2012 R2 (amd64) (6800)</text>
  <rect fill="blue" height="1384.0" stroke="black" width="12" x="1080" y="58406.7"/>
  <text x="1080" y="59795.7" font-family="Tahoma" font-size="12" transform="rotate(90 1080,59795.7)" text-rendering="optimizeSpeed" fill="#000000">Mac OS X (aarch64) (13840)</text>
  <rect fill="blue" height="1385.6" stroke="black" width="12" x="1095" y="58405.1"/>
  <text x="1095" y="59795.7" font-family="Tahoma" font-size="12" transform="rotate(90 1095,59795.7)" text-rendering="optimizeSpeed" fill="#000000">Linux (aarch64) (13856)</text>
  <rect fill="blue" height="1577.4" stroke="black" width="12" x="1110" y="58213.3"/>
  <text x="1110" y="59795.7" font-family="Tahoma" font-size="12" transform="rotate(90 1110,59795.7)" text-rendering="optimizeSpeed" fill="#000000">Mac OS X (x86_64) (15774)</text>
  <rect fill="blue" height="1620.1" stroke="black" width="12" x="1125" y="58170.6"/>
  <text x="1125" y="59795.7" font-family="Tahoma" font-size="12" transform="rotate(90 1125,59795.7)" text-rendering="optimizeSpeed" fill="#000000">Windows Server 2022 (amd64) (16201)</text>
  <rect fill="blue" height="2016.9" stroke="black" width="12" x="1140" y="57773.8"/>
  <text x="1140" y="59795.7" font-family="Tahoma" font-size="12" transform="rotate(90 1140,59795.7)" text-rendering="optimizeSpeed" fill="#000000">Windows 11 (amd64) (20169)</text>
  <rect fill="blue" height="2930.0" stroke="black" width="12" x="1155" y="56860.7"/>
  <text x="1155" y="59795.7" font-family="Tahoma" font-size="12" transform="rotate(90 1155,59795.7)" text-rendering="optimizeSpeed" fill="#000000">Windows Server 2016 (amd64) (29300)</text>
  <rect fill="blue" height="3454.7" stroke="black" width="12" x="1170" y="56336.0"/>
  <text x="1170" y="59795.7" font-family="Tahoma" font-size="12" transform="rotate(90 1170,59795.7)" text-rendering="optimizeSpeed" fill="#000000">Windows Server 2019 (amd64) (34547)</text>
  <rect fill="blue" height="6705.6" stroke="black" width="12" x="1185" y="53085.1"/>
  <text x="1185" y="59795.7" font-family="Tahoma" font-size="12" transform="rotate(90 1185,59795.7)" text-rendering="optimizeSpeed" fill="#000000">Windows 10 (amd64) (67056)</text>
  <rect fill="blue" height="37202.3" stroke="black" width="12" x="1200" y="22588.4"/>
  <text x="1200" y="59795.7" font-family="Tahoma" font-size="12" transform="rotate(90 1200,59795.7)" text-rendering="optimizeSpeed" fill="#000000">N/A (372023)</text>
  <rect fill="blue" height="59740.7" stroke="black" width="12" x="1215" y="50.0"/>
  <text x="1215" y="59795.7" font-family="Tahoma" font-size="12" transform="rotate(90 1215,59795.7)" text-rendering="optimizeSpeed" fill="#000000">Linux (amd64) (597407)</text>
  <text x="10" y="40" font-family="Tahoma" font-size="20" text-rendering="optimizeSpeed" fill="#000000">Nodes (total: 1214708)</text>
</svg>
