<svg xmlns="http://www.w3.org/2000/svg" version="1.1" preserveAspectRatio="xMidYMid meet" viewBox="0 0 440 60601.7">
  <rect fill="blue" height="0.0" stroke="black" width="12" x="15" y="60301.7"/>
  <text x="15" y="60306.7" font-family="Tahoma" font-size="12" transform="rotate(90 15,60306.7)" text-rendering="optimizeSpeed" fill="#000000">com-github-mjdetullio-jenkins-plugins-multibranch-IvyMultiBranchProject (1)</text>
  <rect fill="blue" height="0.0" stroke="black" width="12" x="30" y="60301.7"/>
  <text x="30" y="60306.7" font-family="Tahoma" font-size="12" transform="rotate(90 30,60306.7)" text-rendering="optimizeSpeed" fill="#000000">org-jenkinsci-plugins-updatebot-ImportGithubRepoProject (1)</text>
  <rect fill="blue" height="0.0" stroke="black" width="12" x="45" y="60301.7"/>
  <text x="45" y="60306.7" font-family="Tahoma" font-size="12" transform="rotate(90 45,60306.7)" text-rendering="optimizeSpeed" fill="#000000">com-google-jenkins-plugins-dsl-YamlProject (2)</text>
  <rect fill="blue" height="0.0" stroke="black" width="12" x="60" y="60301.7"/>
  <text x="60" y="60306.7" font-family="Tahoma" font-size="12" transform="rotate(90 60,60306.7)" text-rendering="optimizeSpeed" fill="#000000">org-jenkinsci-plugins-drupal-projects-DrupalProject (2)</text>
  <rect fill="blue" height="0.0" stroke="black" width="12" x="75" y="60301.7"/>
  <text x="75" y="60306.7" font-family="Tahoma" font-size="12" transform="rotate(90 75,60306.7)" text-rendering="optimizeSpeed" fill="#000000">org-jvnet-hudson-plugins-ade-project-IfarmProject (8)</text>
  <rect fill="blue" height="0.0" stroke="black" width="12" x="90" y="60301.7"/>
  <text x="90" y="60306.7" font-family="Tahoma" font-size="12" transform="rotate(90 90,60306.7)" text-rendering="optimizeSpeed" fill="#000000">com-barchart-jenkins-cascade-CascadeProject (19)</text>
  <rect fill="blue" height="0.0" stroke="black" width="12" x="105" y="60301.6"/>
  <text x="105" y="60306.7" font-family="Tahoma" font-size="12" transform="rotate(90 105,60306.7)" text-rendering="optimizeSpeed" fill="#000000">com-github-mjdetullio-jenkins-plugins-multibranch-MatrixMultiBranchProject (37)</text>
  <rect fill="blue" height="0.0" stroke="black" width="12" x="120" y="60301.6"/>
  <text x="120" y="60306.7" font-family="Tahoma" font-size="12" transform="rotate(90 120,60306.7)" text-rendering="optimizeSpeed" fill="#000000">hudson-plugin-smartjob-SmartJob (42)</text>
  <rect fill="blue" height="0.2" stroke="black" width="12" x="135" y="60301.5"/>
  <text x="135" y="60306.7" font-family="Tahoma" font-size="12" transform="rotate(90 135,60306.7)" text-rendering="optimizeSpeed" fill="#000000">captmorgan-ExternalProject (167)</text>
  <rect fill="blue" height="0.5" stroke="black" width="12" x="150" y="60301.2"/>
  <text x="150" y="60306.7" font-family="Tahoma" font-size="12" transform="rotate(90 150,60306.7)" text-rendering="optimizeSpeed" fill="#000000">org-jenkinsci-plugins-coordinator-model-CoordinatorProject (467)</text>
  <rect fill="blue" height="0.6" stroke="black" width="12" x="165" y="60301.1"/>
  <text x="165" y="60306.7" font-family="Tahoma" font-size="12" transform="rotate(90 165,60306.7)" text-rendering="optimizeSpeed" fill="#000000">com-github-mjdetullio-jenkins-plugins-multibranch-FreeStyleMultiBranchProject (599)</text>
  <rect fill="blue" height="0.6" stroke="black" width="12" x="180" y="60301.1"/>
  <text x="180" y="60306.7" font-family="Tahoma" font-size="12" transform="rotate(90 180,60306.7)" text-rendering="optimizeSpeed" fill="#000000">org-jenkinsci-plugins-jobgenerator-JobGenerator (620)</text>
  <rect fill="blue" height="0.7" stroke="black" width="12" x="195" y="60301.0"/>
  <text x="195" y="60306.7" font-family="Tahoma" font-size="12" transform="rotate(90 195,60306.7)" text-rendering="optimizeSpeed" fill="#000000">com-github-mjdetullio-jenkins-plugins-multibranch-MavenMultiBranchProject (657)</text>
  <rect fill="blue" height="1.8" stroke="black" width="12" x="210" y="60299.9"/>
  <text x="210" y="60306.7" font-family="Tahoma" font-size="12" transform="rotate(90 210,60306.7)" text-rendering="optimizeSpeed" fill="#000000">hudson-ivy-IvyModuleSet (1779)</text>
  <rect fill="blue" height="4.5" stroke="black" width="12" x="225" y="60297.2"/>
  <text x="225" y="60306.7" font-family="Tahoma" font-size="12" transform="rotate(90 225,60306.7)" text-rendering="optimizeSpeed" fill="#000000">hudson-model-ExternalJob (4459)</text>
  <rect fill="blue" height="5.1" stroke="black" width="12" x="240" y="60296.6"/>
  <text x="240" y="60306.7" font-family="Tahoma" font-size="12" transform="rotate(90 240,60306.7)" text-rendering="optimizeSpeed" fill="#000000">hudson-plugins-project_inheritance-projects-InheritanceProject (5083)</text>
  <rect fill="blue" height="8.7" stroke="black" width="12" x="255" y="60293.0"/>
  <text x="255" y="60306.7" font-family="Tahoma" font-size="12" transform="rotate(90 255,60306.7)" text-rendering="optimizeSpeed" fill="#000000">com-cloudbees-plugins-flow-BuildFlow (8713)</text>
  <rect fill="blue" height="17.6" stroke="black" width="12" x="270" y="60284.1"/>
  <text x="270" y="60306.7" font-family="Tahoma" font-size="12" transform="rotate(90 270,60306.7)" text-rendering="optimizeSpeed" fill="#000000">org-jenkinsci-plugins-pipeline-multibranch-defaults-PipelineMultiBranchDefaultsProject (17552)</text>
  <rect fill="blue" height="60.8" stroke="black" width="12" x="285" y="60240.9"/>
  <text x="285" y="60306.7" font-family="Tahoma" font-size="12" transform="rotate(90 285,60306.7)" text-rendering="optimizeSpeed" fill="#000000">jenkins-branch-OrganizationFolder (60767)</text>
  <rect fill="blue" height="230.4" stroke="black" width="12" x="300" y="60071.3"/>
  <text x="300" y="60306.7" font-family="Tahoma" font-size="12" transform="rotate(90 300,60306.7)" text-rendering="optimizeSpeed" fill="#000000">hudson-matrix-MatrixProject (230430)</text>
  <rect fill="blue" height="574.6" stroke="black" width="12" x="315" y="59727.1"/>
  <text x="315" y="60306.7" font-family="Tahoma" font-size="12" transform="rotate(90 315,60306.7)" text-rendering="optimizeSpeed" fill="#000000">com-tikal-jenkins-plugins-multijob-MultiJobProject (574582)</text>
  <rect fill="blue" height="1787.7" stroke="black" width="12" x="330" y="58514.0"/>
  <text x="330" y="60306.7" font-family="Tahoma" font-size="12" transform="rotate(90 330,60306.7)" text-rendering="optimizeSpeed" fill="#000000">hudson-maven-MavenModuleSet (1787709)</text>
  <rect fill="blue" height="2201.0" stroke="black" width="12" x="345" y="58100.7"/>
  <text x="345" y="60306.7" font-family="Tahoma" font-size="12" transform="rotate(90 345,60306.7)" text-rendering="optimizeSpeed" fill="#000000">org-jenkinsci-plugins-workflow-multibranch-WorkflowMultiBranchProject (2200953)</text>
  <rect fill="blue" height="4320.4" stroke="black" width="12" x="360" y="55981.3"/>
  <text x="360" y="60306.7" font-family="Tahoma" font-size="12" transform="rotate(90 360,60306.7)" text-rendering="optimizeSpeed" fill="#000000">com-cloudbees-hudson-plugins-folder-Folder (4320390)</text>
  <rect fill="blue" height="19002.1" stroke="black" width="12" x="375" y="41299.6"/>
  <text x="375" y="60306.7" font-family="Tahoma" font-size="12" transform="rotate(90 375,60306.7)" text-rendering="optimizeSpeed" fill="#000000">hudson-model-FreeStyleProject (19002079)</text>
  <rect fill="blue" height="60251.7" stroke="black" width="12" x="390" y="50.0"/>
  <text x="390" y="60306.7" font-family="Tahoma" font-size="12" transform="rotate(90 390,60306.7)" text-rendering="optimizeSpeed" fill="#000000">org-jenkinsci-plugins-workflow-job-WorkflowJob (60251684)</text>
  <text x="10" y="40" font-family="Tahoma" font-size="20" text-rendering="optimizeSpeed" fill="#000000">Jobs (total: 88468802)</text>
</svg>
