<svg xmlns="http://www.w3.org/2000/svg" version="1.1" preserveAspectRatio="xMidYMid meet" viewBox="0 0 485 57158.7">
  <rect fill="blue" height="0.0" stroke="black" width="12" x="15" y="56858.7"/>
  <text x="15" y="56863.7" font-family="Tahoma" font-size="12" transform="rotate(90 15,56863.7)" text-rendering="optimizeSpeed" fill="#000000">com-github-mjdetullio-jenkins-plugins-multibranch-IvyMultiBranchProject (1)</text>
  <rect fill="blue" height="0.0" stroke="black" width="12" x="30" y="56858.7"/>
  <text x="30" y="56863.7" font-family="Tahoma" font-size="12" transform="rotate(90 30,56863.7)" text-rendering="optimizeSpeed" fill="#000000">org-jenkinsci-plugins-jobexecutors-toplevelitems-StoreVersion (1)</text>
  <rect fill="blue" height="0.0" stroke="black" width="12" x="45" y="56858.7"/>
  <text x="45" y="56863.7" font-family="Tahoma" font-size="12" transform="rotate(90 45,56863.7)" text-rendering="optimizeSpeed" fill="#000000">com-google-jenkins-plugins-dsl-YamlProject (2)</text>
  <rect fill="blue" height="0.0" stroke="black" width="12" x="60" y="56858.7"/>
  <text x="60" y="56863.7" font-family="Tahoma" font-size="12" transform="rotate(90 60,56863.7)" text-rendering="optimizeSpeed" fill="#000000">hudson-plugins-customer-data-template-DependencyStyleProject (2)</text>
  <rect fill="blue" height="0.0" stroke="black" width="12" x="75" y="56858.7"/>
  <text x="75" y="56863.7" font-family="Tahoma" font-size="12" transform="rotate(90 75,56863.7)" text-rendering="optimizeSpeed" fill="#000000">org-jenkinsci-plugins-jobexecutors-toplevelitems-PortalNotifier (3)</text>
  <rect fill="blue" height="0.0" stroke="black" width="12" x="90" y="56858.7"/>
  <text x="90" y="56863.7" font-family="Tahoma" font-size="12" transform="rotate(90 90,56863.7)" text-rendering="optimizeSpeed" fill="#000000">hudson-plugins-customer-data-template-DataWarehouseStyleProject (5)</text>
  <rect fill="blue" height="0.0" stroke="black" width="12" x="105" y="56858.7"/>
  <text x="105" y="56863.7" font-family="Tahoma" font-size="12" transform="rotate(90 105,56863.7)" text-rendering="optimizeSpeed" fill="#000000">org-jenkinsci-plugins-drupal-projects-DrupalProject (5)</text>
  <rect fill="blue" height="0.0" stroke="black" width="12" x="120" y="56858.7"/>
  <text x="120" y="56863.7" font-family="Tahoma" font-size="12" transform="rotate(90 120,56863.7)" text-rendering="optimizeSpeed" fill="#000000">org-jvnet-hudson-plugins-ade-project-IfarmProject (9)</text>
  <rect fill="blue" height="0.0" stroke="black" width="12" x="135" y="56858.7"/>
  <text x="135" y="56863.7" font-family="Tahoma" font-size="12" transform="rotate(90 135,56863.7)" text-rendering="optimizeSpeed" fill="#000000">hudson-plugin-smartjob-SmartJob (18)</text>
  <rect fill="blue" height="0.0" stroke="black" width="12" x="150" y="56858.7"/>
  <text x="150" y="56863.7" font-family="Tahoma" font-size="12" transform="rotate(90 150,56863.7)" text-rendering="optimizeSpeed" fill="#000000">com-barchart-jenkins-cascade-CascadeProject (19)</text>
  <rect fill="blue" height="0.0" stroke="black" width="12" x="165" y="56858.7"/>
  <text x="165" y="56863.7" font-family="Tahoma" font-size="12" transform="rotate(90 165,56863.7)" text-rendering="optimizeSpeed" fill="#000000">com-github-mjdetullio-jenkins-plugins-multibranch-MatrixMultiBranchProject (37)</text>
  <rect fill="blue" height="0.1" stroke="black" width="12" x="180" y="56858.6"/>
  <text x="180" y="56863.7" font-family="Tahoma" font-size="12" transform="rotate(90 180,56863.7)" text-rendering="optimizeSpeed" fill="#000000">com-github-mjdetullio-jenkins-plugins-multibranch-MavenMultiBranchProject (148)</text>
  <rect fill="blue" height="0.2" stroke="black" width="12" x="195" y="56858.5"/>
  <text x="195" y="56863.7" font-family="Tahoma" font-size="12" transform="rotate(90 195,56863.7)" text-rendering="optimizeSpeed" fill="#000000">captmorgan-ExternalProject (162)</text>
  <rect fill="blue" height="0.5" stroke="black" width="12" x="210" y="56858.2"/>
  <text x="210" y="56863.7" font-family="Tahoma" font-size="12" transform="rotate(90 210,56863.7)" text-rendering="optimizeSpeed" fill="#000000">org-jenkinsci-plugins-coordinator-model-CoordinatorProject (487)</text>
  <rect fill="blue" height="0.6" stroke="black" width="12" x="225" y="56858.1"/>
  <text x="225" y="56863.7" font-family="Tahoma" font-size="12" transform="rotate(90 225,56863.7)" text-rendering="optimizeSpeed" fill="#000000">com-github-mjdetullio-jenkins-plugins-multibranch-FreeStyleMultiBranchProject (557)</text>
  <rect fill="blue" height="0.8" stroke="black" width="12" x="240" y="56857.9"/>
  <text x="240" y="56863.7" font-family="Tahoma" font-size="12" transform="rotate(90 240,56863.7)" text-rendering="optimizeSpeed" fill="#000000">org-jenkinsci-plugins-jobgenerator-JobGenerator (760)</text>
  <rect fill="blue" height="1.8" stroke="black" width="12" x="255" y="56856.9"/>
  <text x="255" y="56863.7" font-family="Tahoma" font-size="12" transform="rotate(90 255,56863.7)" text-rendering="optimizeSpeed" fill="#000000">hudson-ivy-IvyModuleSet (1798)</text>
  <rect fill="blue" height="4.6" stroke="black" width="12" x="270" y="56854.1"/>
  <text x="270" y="56863.7" font-family="Tahoma" font-size="12" transform="rotate(90 270,56863.7)" text-rendering="optimizeSpeed" fill="#000000">hudson-model-ExternalJob (4613)</text>
  <rect fill="blue" height="6.1" stroke="black" width="12" x="285" y="56852.6"/>
  <text x="285" y="56863.7" font-family="Tahoma" font-size="12" transform="rotate(90 285,56863.7)" text-rendering="optimizeSpeed" fill="#000000">hudson-plugins-project_inheritance-projects-InheritanceProject (6072)</text>
  <rect fill="blue" height="10.7" stroke="black" width="12" x="300" y="56848.0"/>
  <text x="300" y="56863.7" font-family="Tahoma" font-size="12" transform="rotate(90 300,56863.7)" text-rendering="optimizeSpeed" fill="#000000">com-cloudbees-plugins-flow-BuildFlow (10720)</text>
  <rect fill="blue" height="18.8" stroke="black" width="12" x="315" y="56839.9"/>
  <text x="315" y="56863.7" font-family="Tahoma" font-size="12" transform="rotate(90 315,56863.7)" text-rendering="optimizeSpeed" fill="#000000">org-jenkinsci-plugins-pipeline-multibranch-defaults-PipelineMultiBranchDefaultsProject (18827)</text>
  <rect fill="blue" height="59.2" stroke="black" width="12" x="330" y="56799.5"/>
  <text x="330" y="56863.7" font-family="Tahoma" font-size="12" transform="rotate(90 330,56863.7)" text-rendering="optimizeSpeed" fill="#000000">jenkins-branch-OrganizationFolder (59232)</text>
  <rect fill="blue" height="288.2" stroke="black" width="12" x="345" y="56570.5"/>
  <text x="345" y="56863.7" font-family="Tahoma" font-size="12" transform="rotate(90 345,56863.7)" text-rendering="optimizeSpeed" fill="#000000">hudson-matrix-MatrixProject (288163)</text>
  <rect fill="blue" height="570.4" stroke="black" width="12" x="360" y="56288.3"/>
  <text x="360" y="56863.7" font-family="Tahoma" font-size="12" transform="rotate(90 360,56863.7)" text-rendering="optimizeSpeed" fill="#000000">com-tikal-jenkins-plugins-multijob-MultiJobProject (570377)</text>
  <rect fill="blue" height="1793.1" stroke="black" width="12" x="375" y="55065.6"/>
  <text x="375" y="56863.7" font-family="Tahoma" font-size="12" transform="rotate(90 375,56863.7)" text-rendering="optimizeSpeed" fill="#000000">hudson-maven-MavenModuleSet (1793144)</text>
  <rect fill="blue" height="2155.7" stroke="black" width="12" x="390" y="54703.0"/>
  <text x="390" y="56863.7" font-family="Tahoma" font-size="12" transform="rotate(90 390,56863.7)" text-rendering="optimizeSpeed" fill="#000000">org-jenkinsci-plugins-workflow-multibranch-WorkflowMultiBranchProject (2155659)</text>
  <rect fill="blue" height="4228.8" stroke="black" width="12" x="405" y="52629.9"/>
  <text x="405" y="56863.7" font-family="Tahoma" font-size="12" transform="rotate(90 405,56863.7)" text-rendering="optimizeSpeed" fill="#000000">com-cloudbees-hudson-plugins-folder-Folder (4228845)</text>
  <rect fill="blue" height="19389.2" stroke="black" width="12" x="420" y="37469.5"/>
  <text x="420" y="56863.7" font-family="Tahoma" font-size="12" transform="rotate(90 420,56863.7)" text-rendering="optimizeSpeed" fill="#000000">hudson-model-FreeStyleProject (19389174)</text>
  <rect fill="blue" height="56808.7" stroke="black" width="12" x="435" y="50.0"/>
  <text x="435" y="56863.7" font-family="Tahoma" font-size="12" transform="rotate(90 435,56863.7)" text-rendering="optimizeSpeed" fill="#000000">org-jenkinsci-plugins-workflow-job-WorkflowJob (56808705)</text>
  <text x="10" y="40" font-family="Tahoma" font-size="20" text-rendering="optimizeSpeed" fill="#000000">Jobs (total: 85337545)</text>
</svg>
