<svg xmlns="http://www.w3.org/2000/svg" version="1.1" preserveAspectRatio="xMidYMid meet" viewBox="0 0 720 2540">
  <text x="30" y="40" font-family="sans-serif" font-size="16">Nodes, total: 1195327</text>
  <path d="M 200,300 L 0.0,150.0 A 150,150 0 0 1 0.1,150.0 Z" fill="BurlyWood" stroke="black" stroke-width="1"/>
  <rect x="370" y="50" width="20" height="30" fill="BurlyWood" stroke="black" stroke-width="1"/>
  <text x="400" y="38" font-family="sans-serif" font-size="16">AIX (ppc) (28)</text>
  <path d="M 200,300 L 0.1,150.0 A 150,150 0 0 1 2.5,150.0 Z" fill="CadetBlue" stroke="black" stroke-width="1"/>
  <rect x="370" y="51" width="20" height="30" fill="CadetBlue" stroke="black" stroke-width="1"/>
  <text x="400" y="68" font-family="sans-serif" font-size="16">AIX (ppc64) (1335)</text>
  <path d="M 200,300 L 2.5,150.0 A 150,150 0 0 1 2.5,150.0 Z" fill="red" stroke="black" stroke-width="1"/>
  <rect x="370" y="52" width="20" height="30" fill="red" stroke="black" stroke-width="1"/>
  <text x="400" y="98" font-family="sans-serif" font-size="16">Darwin (ppc) (1)</text>
  <path d="M 200,300 L 2.5,150.0 A 150,150 0 0 1 2.5,150.0 Z" fill="blue" stroke="black" stroke-width="1"/>
  <rect x="370" y="53" width="20" height="30" fill="blue" stroke="black" stroke-width="1"/>
  <text x="400" y="128" font-family="sans-serif" font-size="16">FreeBSD (aarch64) (14)</text>
  <path d="M 200,300 L 2.5,150.0 A 150,150 0 0 1 3.6,150.0 Z" fill="yellow" stroke="black" stroke-width="1"/>
  <rect x="370" y="54" width="20" height="30" fill="yellow" stroke="black" stroke-width="1"/>
  <text x="400" y="158" font-family="sans-serif" font-size="16">FreeBSD (amd64) (581)</text>
  <path d="M 200,300 L 3.6,150.0 A 150,150 0 0 1 3.6,150.0 Z" fill="green" stroke="black" stroke-width="1"/>
  <rect x="370" y="55" width="20" height="30" fill="green" stroke="black" stroke-width="1"/>
  <text x="400" y="188" font-family="sans-serif" font-size="16">FreeBSD (i386) (11)</text>
  <path d="M 200,300 L 3.6,150.0 A 150,150 0 0 1 3.9,150.0 Z" fill="gold" stroke="black" stroke-width="1"/>
  <rect x="370" y="56" width="20" height="30" fill="gold" stroke="black" stroke-width="1"/>
  <text x="400" y="218" font-family="sans-serif" font-size="16">HP-UX (IA64N) (151)</text>
  <path d="M 200,300 L 3.9,150.0 A 150,150 0 0 1 4.0,150.0 Z" fill="brown" stroke="black" stroke-width="1"/>
  <rect x="370" y="57" width="20" height="30" fill="brown" stroke="black" stroke-width="1"/>
  <text x="400" y="248" font-family="sans-serif" font-size="16">HP-UX (IA64W) (33)</text>
  <path d="M 200,300 L 4.0,150.0 A 150,150 0 0 1 4.0,150.0 Z" fill="Azure" stroke="black" stroke-width="1"/>
  <rect x="370" y="58" width="20" height="30" fill="Azure" stroke="black" stroke-width="1"/>
  <text x="400" y="278" font-family="sans-serif" font-size="16">HP-UX (PA_RISC2.0) (8)</text>
  <path d="M 200,300 L 4.0,150.0 A 150,150 0 0 1 4.0,150.0 Z" fill="pink" stroke="black" stroke-width="1"/>
  <rect x="370" y="59" width="20" height="30" fill="pink" stroke="black" stroke-width="1"/>
  <text x="400" y="308" font-family="sans-serif" font-size="16">HP-UX (PA_RISC2.0W) (1)</text>
  <path d="M 200,300 L 4.0,150.0 A 150,150 0 0 1 31.7,149.4 Z" fill="khaki" stroke="black" stroke-width="1"/>
  <rect x="370" y="60" width="20" height="30" fill="khaki" stroke="black" stroke-width="1"/>
  <text x="400" y="338" font-family="sans-serif" font-size="16">Linux (aarch64) (15069)</text>
  <path d="M 200,300 L 31.7,149.4 A 150,150 0 1 1 -33.5,-149.3 Z" fill="gray" stroke="black" stroke-width="1"/>
  <rect x="370" y="61" width="20" height="30" fill="gray" stroke="black" stroke-width="1"/>
  <text x="400" y="368" font-family="sans-serif" font-size="16">Linux (amd64) (598690)</text>
  <path d="M 200,300 L -33.5,-149.3 A 150,150 0 0 1 -37.3,-149.1 Z" fill="Aqua" stroke="black" stroke-width="1"/>
  <rect x="370" y="62" width="20" height="30" fill="Aqua" stroke="black" stroke-width="1"/>
  <text x="400" y="398" font-family="sans-serif" font-size="16">Linux (arm) (2064)</text>
  <path d="M 200,300 L -37.3,-149.1 A 150,150 0 0 1 -37.3,-149.1 Z" fill="Aquamarine" stroke="black" stroke-width="1"/>
  <rect x="370" y="63" width="20" height="30" fill="Aquamarine" stroke="black" stroke-width="1"/>
  <text x="400" y="428" font-family="sans-serif" font-size="16">Linux (e2k) (1)</text>
  <path d="M 200,300 L -37.3,-149.1 A 150,150 0 0 1 -42.1,-148.9 Z" fill="beige" stroke="black" stroke-width="1"/>
  <rect x="370" y="64" width="20" height="30" fill="beige" stroke="black" stroke-width="1"/>
  <text x="400" y="458" font-family="sans-serif" font-size="16">Linux (i386) (2596)</text>
  <path d="M 200,300 L -42.1,-148.9 A 150,150 0 0 1 -42.3,-148.9 Z" fill="blueviolet" stroke="black" stroke-width="1"/>
  <rect x="370" y="65" width="20" height="30" fill="blueviolet" stroke="black" stroke-width="1"/>
  <text x="400" y="488" font-family="sans-serif" font-size="16">Linux (loongarch64) (117)</text>
  <path d="M 200,300 L -42.3,-148.9 A 150,150 0 0 1 -42.4,-148.9 Z" fill="Bisque" stroke="black" stroke-width="1"/>
  <rect x="370" y="66" width="20" height="30" fill="Bisque" stroke="black" stroke-width="1"/>
  <text x="400" y="518" font-family="sans-serif" font-size="16">Linux (mips64el) (41)</text>
  <path d="M 200,300 L -42.4,-148.9 A 150,150 0 0 1 -42.4,-148.9 Z" fill="coral" stroke="black" stroke-width="1"/>
  <rect x="370" y="67" width="20" height="30" fill="coral" stroke="black" stroke-width="1"/>
  <text x="400" y="548" font-family="sans-serif" font-size="16">Linux (ppc) (7)</text>
  <path d="M 200,300 L -42.4,-148.9 A 150,150 0 0 1 -42.4,-148.9 Z" fill="darkblue" stroke="black" stroke-width="1"/>
  <rect x="370" y="68" width="20" height="30" fill="darkblue" stroke="black" stroke-width="1"/>
  <text x="400" y="578" font-family="sans-serif" font-size="16">Linux (ppc64) (39)</text>
  <path d="M 200,300 L -42.4,-148.9 A 150,150 0 0 1 -43.4,-148.8 Z" fill="crimson" stroke="black" stroke-width="1"/>
  <rect x="370" y="69" width="20" height="30" fill="crimson" stroke="black" stroke-width="1"/>
  <text x="400" y="608" font-family="sans-serif" font-size="16">Linux (ppc64le) (532)</text>
  <path d="M 200,300 L -43.4,-148.8 A 150,150 0 0 1 -43.5,-148.8 Z" fill="cyan" stroke="black" stroke-width="1"/>
  <rect x="370" y="70" width="20" height="30" fill="cyan" stroke="black" stroke-width="1"/>
  <text x="400" y="638" font-family="sans-serif" font-size="16">Linux (riscv64) (59)</text>
  <path d="M 200,300 L -43.5,-148.8 A 150,150 0 0 1 -43.5,-148.8 Z" fill="darkred" stroke="black" stroke-width="1"/>
  <rect x="370" y="71" width="20" height="30" fill="darkred" stroke="black" stroke-width="1"/>
  <text x="400" y="668" font-family="sans-serif" font-size="16">Linux (s390) (1)</text>
  <path d="M 200,300 L -43.5,-148.8 A 150,150 0 0 1 -44.1,-148.8 Z" fill="ivory" stroke="black" stroke-width="1"/>
  <rect x="370" y="72" width="20" height="30" fill="ivory" stroke="black" stroke-width="1"/>
  <text x="400" y="698" font-family="sans-serif" font-size="16">Linux (s390x) (316)</text>
  <path d="M 200,300 L -44.1,-148.8 A 150,150 0 0 1 -44.2,-148.8 Z" fill="lime" stroke="black" stroke-width="1"/>
  <rect x="370" y="73" width="20" height="30" fill="lime" stroke="black" stroke-width="1"/>
  <text x="400" y="728" font-family="sans-serif" font-size="16">Linux (sw64) (57)</text>
  <path d="M 200,300 L -44.2,-148.8 A 150,150 0 0 1 -44.2,-148.8 Z" fill="maroon" stroke="black" stroke-width="1"/>
  <rect x="370" y="74" width="20" height="30" fill="maroon" stroke="black" stroke-width="1"/>
  <text x="400" y="758" font-family="sans-serif" font-size="16">Linux (x86) (16)</text>
  <path d="M 200,300 L -44.2,-148.8 A 150,150 0 0 1 -69.6,-147.0 Z" fill="navy" stroke="black" stroke-width="1"/>
  <rect x="370" y="75" width="20" height="30" fill="navy" stroke="black" stroke-width="1"/>
  <text x="400" y="788" font-family="sans-serif" font-size="16">Mac OS X (aarch64) (13999)</text>
  <path d="M 200,300 L -69.6,-147.0 A 150,150 0 0 1 -69.6,-147.0 Z" fill="olive" stroke="black" stroke-width="1"/>
  <rect x="370" y="76" width="20" height="30" fill="olive" stroke="black" stroke-width="1"/>
  <text x="400" y="818" font-family="sans-serif" font-size="16">Mac OS X (arm64) (3)</text>
  <path d="M 200,300 L -69.6,-147.0 A 150,150 0 0 1 -98.0,-144.0 Z" fill="plum" stroke="black" stroke-width="1"/>
  <rect x="370" y="77" width="20" height="30" fill="plum" stroke="black" stroke-width="1"/>
  <text x="400" y="848" font-family="sans-serif" font-size="16">Mac OS X (x86_64) (15892)</text>
  <path d="M 200,300 L -98.0,-144.0 A 150,150 0 0 1 -290.7,83.5 Z" fill="peru" stroke="black" stroke-width="1"/>
  <rect x="370" y="78" width="20" height="30" fill="peru" stroke="black" stroke-width="1"/>
  <text x="400" y="878" font-family="sans-serif" font-size="16">N/A (357198)</text>
  <path d="M 200,300 L -290.7,83.5 A 150,150 0 0 1 -290.7,83.5 Z" fill="silver" stroke="black" stroke-width="1"/>
  <rect x="370" y="79" width="20" height="30" fill="silver" stroke="black" stroke-width="1"/>
  <text x="400" y="908" font-family="sans-serif" font-size="16">NONSTOP_KERNEL (IA64N) (3)</text>
  <path d="M 200,300 L -290.7,83.5 A 150,150 0 0 1 -290.7,83.5 Z" fill="tan" stroke="black" stroke-width="1"/>
  <rect x="370" y="80" width="20" height="30" fill="tan" stroke="black" stroke-width="1"/>
  <text x="400" y="938" font-family="sans-serif" font-size="16">NONSTOP_KERNEL (amd64) (3)</text>
  <path d="M 200,300 L -290.7,83.5 A 150,150 0 0 1 -290.7,83.5 Z" fill="teal" stroke="black" stroke-width="1"/>
  <rect x="370" y="81" width="20" height="30" fill="teal" stroke="black" stroke-width="1"/>
  <text x="400" y="968" font-family="sans-serif" font-size="16">NONSTOP_KERNEL (x86_64N) (4)</text>
  <path d="M 200,300 L -290.7,83.5 A 150,150 0 0 1 -290.7,83.5 Z" fill="violet" stroke="black" stroke-width="1"/>
  <rect x="370" y="82" width="20" height="30" fill="violet" stroke="black" stroke-width="1"/>
  <text x="400" y="998" font-family="sans-serif" font-size="16">NetBSD (amd64) (3)</text>
  <path d="M 200,300 L -290.7,83.5 A 150,150 0 0 1 -290.7,83.5 Z" fill="AliceBlue" stroke="black" stroke-width="1"/>
  <rect x="370" y="83" width="20" height="30" fill="AliceBlue" stroke="black" stroke-width="1"/>
  <text x="400" y="1028" font-family="sans-serif" font-size="16">NetBSD (i386) (1)</text>
  <path d="M 200,300 L -290.7,83.5 A 150,150 0 0 1 -290.7,83.5 Z" fill="DarkOliveGreen" stroke="black" stroke-width="1"/>
  <rect x="370" y="84" width="20" height="30" fill="DarkOliveGreen" stroke="black" stroke-width="1"/>
  <text x="400" y="1058" font-family="sans-serif" font-size="16">OS/400 (ppc) (1)</text>
  <path d="M 200,300 L -290.7,83.5 A 150,150 0 0 1 -290.6,83.6 Z" fill="Indigo" stroke="black" stroke-width="1"/>
  <rect x="370" y="85" width="20" height="30" fill="Indigo" stroke="black" stroke-width="1"/>
  <text x="400" y="1088" font-family="sans-serif" font-size="16">OS/400 (ppc64) (125)</text>
  <path d="M 200,300 L -290.6,83.6 A 150,150 0 0 1 -290.6,83.6 Z" fill="MediumPurple" stroke="black" stroke-width="1"/>
  <rect x="370" y="86" width="20" height="30" fill="MediumPurple" stroke="black" stroke-width="1"/>
  <text x="400" y="1118" font-family="sans-serif" font-size="16">OS400 (ppc64) (8)</text>
  <path d="M 200,300 L -290.6,83.6 A 150,150 0 0 1 -290.5,83.6 Z" fill="Purple" stroke="black" stroke-width="1"/>
  <rect x="370" y="87" width="20" height="30" fill="Purple" stroke="black" stroke-width="1"/>
  <text x="400" y="1148" font-family="sans-serif" font-size="16">OpenBSD (aarch64) (3)</text>
  <path d="M 200,300 L -290.5,83.6 A 150,150 0 0 1 -290.5,83.7 Z" fill="AntiqueWhite" stroke="black" stroke-width="1"/>
  <rect x="370" y="88" width="20" height="30" fill="AntiqueWhite" stroke="black" stroke-width="1"/>
  <text x="400" y="1178" font-family="sans-serif" font-size="16">OpenBSD (amd64) (30)</text>
  <path d="M 200,300 L -290.5,83.7 A 150,150 0 0 1 -290.5,83.7 Z" fill="DarkOrange" stroke="black" stroke-width="1"/>
  <rect x="370" y="89" width="20" height="30" fill="DarkOrange" stroke="black" stroke-width="1"/>
  <text x="400" y="1208" font-family="sans-serif" font-size="16">QNX (amd64) (1)</text>
  <path d="M 200,300 L -290.5,83.7 A 150,150 0 0 1 -290.3,83.8 Z" fill="Ivory" stroke="black" stroke-width="1"/>
  <rect x="370" y="90" width="20" height="30" fill="Ivory" stroke="black" stroke-width="1"/>
  <text x="400" y="1238" font-family="sans-serif" font-size="16">SunOS (amd64) (254)</text>
  <path d="M 200,300 L -290.3,83.8 A 150,150 0 0 1 -290.2,83.8 Z" fill="MediumSeaGreen" stroke="black" stroke-width="1"/>
  <rect x="370" y="91" width="20" height="30" fill="MediumSeaGreen" stroke="black" stroke-width="1"/>
  <text x="400" y="1268" font-family="sans-serif" font-size="16">SunOS (sparc) (29)</text>
  <path d="M 200,300 L -290.2,83.8 A 150,150 0 0 1 -289.6,84.2 Z" fill="Red" stroke="black" stroke-width="1"/>
  <rect x="370" y="92" width="20" height="30" fill="Red" stroke="black" stroke-width="1"/>
  <text x="400" y="1298" font-family="sans-serif" font-size="16">SunOS (sparcv9) (580)</text>
  <path d="M 200,300 L -289.6,84.2 A 150,150 0 0 1 -289.6,84.2 Z" fill="Aqua" stroke="black" stroke-width="1"/>
  <rect x="370" y="93" width="20" height="30" fill="Aqua" stroke="black" stroke-width="1"/>
  <text x="400" y="1328" font-family="sans-serif" font-size="16">SunOS (x86) (13)</text>
  <path d="M 200,300 L -289.6,84.2 A 150,150 0 0 1 -210.1,120.0 Z" fill="DarkOrchid" stroke="black" stroke-width="1"/>
  <rect x="370" y="94" width="20" height="30" fill="DarkOrchid" stroke="black" stroke-width="1"/>
  <text x="400" y="1358" font-family="sans-serif" font-size="16">Windows 10 (amd64) (62929)</text>
  <path d="M 200,300 L -210.1,120.0 A 150,150 0 0 1 -205.0,121.6 Z" fill="Khaki" stroke="black" stroke-width="1"/>
  <rect x="370" y="95" width="20" height="30" fill="Khaki" stroke="black" stroke-width="1"/>
  <text x="400" y="1388" font-family="sans-serif" font-size="16">Windows 10 (x86) (3402)</text>
  <path d="M 200,300 L -205.0,121.6 A 150,150 0 0 1 -205.0,121.6 Z" fill="MediumSlateBlue" stroke="black" stroke-width="1"/>
  <rect x="370" y="96" width="20" height="30" fill="MediumSlateBlue" stroke="black" stroke-width="1"/>
  <text x="400" y="1418" font-family="sans-serif" font-size="16">Windows 11 (aarch64) (36)</text>
  <path d="M 200,300 L -205.0,121.6 A 150,150 0 0 1 -170.1,131.1 Z" fill="RosyBrown" stroke="black" stroke-width="1"/>
  <rect x="370" y="97" width="20" height="30" fill="RosyBrown" stroke="black" stroke-width="1"/>
  <text x="400" y="1448" font-family="sans-serif" font-size="16">Windows 11 (amd64) (22491)</text>
  <path d="M 200,300 L -170.1,131.1 A 150,150 0 0 1 -169.6,131.2 Z" fill="AquaMarine" stroke="black" stroke-width="1"/>
  <rect x="370" y="98" width="20" height="30" fill="AquaMarine" stroke="black" stroke-width="1"/>
  <text x="400" y="1478" font-family="sans-serif" font-size="16">Windows 11 (x86) (301)</text>
  <path d="M 200,300 L -169.6,131.2 A 150,150 0 0 1 -169.6,131.2 Z" fill="DarkRed" stroke="black" stroke-width="1"/>
  <rect x="370" y="99" width="20" height="30" fill="DarkRed" stroke="black" stroke-width="1"/>
  <text x="400" y="1508" font-family="sans-serif" font-size="16">Windows 2000 (x86) (1)</text>
  <path d="M 200,300 L -169.6,131.2 A 150,150 0 0 1 -169.6,131.2 Z" fill="Lavender" stroke="black" stroke-width="1"/>
  <rect x="370" y="100" width="20" height="30" fill="Lavender" stroke="black" stroke-width="1"/>
  <text x="400" y="1538" font-family="sans-serif" font-size="16">Windows 2003 (amd64) (11)</text>
  <path d="M 200,300 L -169.6,131.2 A 150,150 0 0 1 -169.5,131.2 Z" fill="MediumSpringGreen" stroke="black" stroke-width="1"/>
  <rect x="370" y="101" width="20" height="30" fill="MediumSpringGreen" stroke="black" stroke-width="1"/>
  <text x="400" y="1568" font-family="sans-serif" font-size="16">Windows 2003 (x86) (64)</text>
  <path d="M 200,300 L -169.5,131.2 A 150,150 0 0 1 -166.4,132.0 Z" fill="RoyalBlue" stroke="black" stroke-width="1"/>
  <rect x="370" y="102" width="20" height="30" fill="RoyalBlue" stroke="black" stroke-width="1"/>
  <text x="400" y="1598" font-family="sans-serif" font-size="16">Windows 7 (amd64) (1933)</text>
  <path d="M 200,300 L -166.4,132.0 A 150,150 0 0 1 -165.2,132.2 Z" fill="Azure" stroke="black" stroke-width="1"/>
  <rect x="370" y="103" width="20" height="30" fill="Azure" stroke="black" stroke-width="1"/>
  <text x="400" y="1628" font-family="sans-serif" font-size="16">Windows 7 (x86) (704)</text>
  <path d="M 200,300 L -165.2,132.2 A 150,150 0 0 1 -165.2,132.2 Z" fill="DarkSalmon" stroke="black" stroke-width="1"/>
  <rect x="370" y="104" width="20" height="30" fill="DarkSalmon" stroke="black" stroke-width="1"/>
  <text x="400" y="1658" font-family="sans-serif" font-size="16">Windows 8 (amd64) (40)</text>
  <path d="M 200,300 L -165.2,132.2 A 150,150 0 0 1 -165.1,132.3 Z" fill="LavenderBlush" stroke="black" stroke-width="1"/>
  <rect x="370" y="105" width="20" height="30" fill="LavenderBlush" stroke="black" stroke-width="1"/>
  <text x="400" y="1688" font-family="sans-serif" font-size="16">Windows 8 (x86) (26)</text>
  <path d="M 200,300 L -165.1,132.3 A 150,150 0 0 1 -164.7,132.3 Z" fill="MediumTurquoise" stroke="black" stroke-width="1"/>
  <rect x="370" y="106" width="20" height="30" fill="MediumTurquoise" stroke="black" stroke-width="1"/>
  <text x="400" y="1718" font-family="sans-serif" font-size="16">Windows 8.1 (amd64) (243)</text>
  <path d="M 200,300 L -164.7,132.3 A 150,150 0 0 1 -164.5,132.4 Z" fill="SaddleBrown" stroke="black" stroke-width="1"/>
  <rect x="370" y="107" width="20" height="30" fill="SaddleBrown" stroke="black" stroke-width="1"/>
  <text x="400" y="1748" font-family="sans-serif" font-size="16">Windows 8.1 (x86) (153)</text>
  <path d="M 200,300 L -164.5,132.4 A 150,150 0 0 1 -163.2,132.7 Z" fill="Beige" stroke="black" stroke-width="1"/>
  <rect x="370" y="108" width="20" height="30" fill="Beige" stroke="black" stroke-width="1"/>
  <text x="400" y="1778" font-family="sans-serif" font-size="16">Windows NT (unknown) (amd64) (821)</text>
  <path d="M 200,300 L -163.2,132.7 A 150,150 0 0 1 -162.5,132.8 Z" fill="DarkSeaGreen" stroke="black" stroke-width="1"/>
  <rect x="370" y="109" width="20" height="30" fill="DarkSeaGreen" stroke="black" stroke-width="1"/>
  <text x="400" y="1808" font-family="sans-serif" font-size="16">Windows NT (unknown) (x86) (370)</text>
  <path d="M 200,300 L -162.5,132.8 A 150,150 0 0 1 -162.5,132.8 Z" fill="LawnGreen" stroke="black" stroke-width="1"/>
  <rect x="370" y="110" width="20" height="30" fill="LawnGreen" stroke="black" stroke-width="1"/>
  <text x="400" y="1838" font-family="sans-serif" font-size="16">Windows Server 2008 (amd64) (17)</text>
  <path d="M 200,300 L -162.5,132.8 A 150,150 0 0 1 -162.4,132.9 Z" fill="MediumVioletRed" stroke="black" stroke-width="1"/>
  <rect x="370" y="111" width="20" height="30" fill="MediumVioletRed" stroke="black" stroke-width="1"/>
  <text x="400" y="1868" font-family="sans-serif" font-size="16">Windows Server 2008 (x86) (44)</text>
  <path d="M 200,300 L -162.4,132.9 A 150,150 0 0 1 -160.0,133.4 Z" fill="Salmon" stroke="black" stroke-width="1"/>
  <rect x="370" y="112" width="20" height="30" fill="Salmon" stroke="black" stroke-width="1"/>
  <text x="400" y="1898" font-family="sans-serif" font-size="16">Windows Server 2008 R2 (amd64) (1477)</text>
  <path d="M 200,300 L -160.0,133.4 A 150,150 0 0 1 -159.4,133.5 Z" fill="Bisque" stroke="black" stroke-width="1"/>
  <rect x="370" y="113" width="20" height="30" fill="Bisque" stroke="black" stroke-width="1"/>
  <text x="400" y="1928" font-family="sans-serif" font-size="16">Windows Server 2008 R2 (x86) (402)</text>
  <path d="M 200,300 L -159.4,133.5 A 150,150 0 0 1 -158.2,133.8 Z" fill="DarkSlateBlue" stroke="black" stroke-width="1"/>
  <rect x="370" y="114" width="20" height="30" fill="DarkSlateBlue" stroke="black" stroke-width="1"/>
  <text x="400" y="1958" font-family="sans-serif" font-size="16">Windows Server 2012 (amd64) (719)</text>
  <path d="M 200,300 L -158.2,133.8 A 150,150 0 0 1 -158.0,133.9 Z" fill="LemonChiffon" stroke="black" stroke-width="1"/>
  <rect x="370" y="115" width="20" height="30" fill="LemonChiffon" stroke="black" stroke-width="1"/>
  <text x="400" y="1988" font-family="sans-serif" font-size="16">Windows Server 2012 (x86) (140)</text>
  <path d="M 200,300 L -158.0,133.9 A 150,150 0 0 1 -148.0,135.9 Z" fill="MidnightBlue" stroke="black" stroke-width="1"/>
  <rect x="370" y="116" width="20" height="30" fill="MidnightBlue" stroke="black" stroke-width="1"/>
  <text x="400" y="2018" font-family="sans-serif" font-size="16">Windows Server 2012 R2 (amd64) (6050)</text>
  <path d="M 200,300 L -148.0,135.9 A 150,150 0 0 1 -146.2,136.3 Z" fill="SandyBrown" stroke="black" stroke-width="1"/>
  <rect x="370" y="117" width="20" height="30" fill="SandyBrown" stroke="black" stroke-width="1"/>
  <text x="400" y="2048" font-family="sans-serif" font-size="16">Windows Server 2012 R2 (x86) (1081)</text>
  <path d="M 200,300 L -146.2,136.3 A 150,150 0 0 1 -101.1,143.6 Z" fill="Black" stroke="black" stroke-width="1"/>
  <rect x="370" y="118" width="20" height="30" fill="Black" stroke="black" stroke-width="1"/>
  <text x="400" y="2078" font-family="sans-serif" font-size="16">Windows Server 2016 (amd64) (26214)</text>
  <path d="M 200,300 L -101.1,143.6 A 150,150 0 0 1 -97.2,144.1 Z" fill="DarkSlateGray" stroke="black" stroke-width="1"/>
  <rect x="370" y="119" width="20" height="30" fill="DarkSlateGray" stroke="black" stroke-width="1"/>
  <text x="400" y="2108" font-family="sans-serif" font-size="16">Windows Server 2016 (x86) (2219)</text>
  <path d="M 200,300 L -97.2,144.1 A 150,150 0 0 1 -97.2,144.1 Z" fill="LightBlue" stroke="black" stroke-width="1"/>
  <rect x="370" y="120" width="20" height="30" fill="LightBlue" stroke="black" stroke-width="1"/>
  <text x="400" y="2138" font-family="sans-serif" font-size="16">Windows Server 2016 Standard (amd64) (4)</text>
  <path d="M 200,300 L -97.2,144.1 A 150,150 0 0 1 -37.5,149.1 Z" fill="MintCream" stroke="black" stroke-width="1"/>
  <rect x="370" y="121" width="20" height="30" fill="MintCream" stroke="black" stroke-width="1"/>
  <text x="400" y="2168" font-family="sans-serif" font-size="16">Windows Server 2019 (amd64) (33093)</text>
  <path d="M 200,300 L -37.5,149.1 A 150,150 0 0 1 -35.2,149.2 Z" fill="SeaGreen" stroke="black" stroke-width="1"/>
  <rect x="370" y="122" width="20" height="30" fill="SeaGreen" stroke="black" stroke-width="1"/>
  <text x="400" y="2198" font-family="sans-serif" font-size="16">Windows Server 2019 (x86) (1279)</text>
  <path d="M 200,300 L -35.2,149.2 A 150,150 0 0 1 -1.3,150.0 Z" fill="BlanchedAlmond" stroke="black" stroke-width="1"/>
  <rect x="370" y="123" width="20" height="30" fill="BlanchedAlmond" stroke="black" stroke-width="1"/>
  <text x="400" y="2228" font-family="sans-serif" font-size="16">Windows Server 2022 (amd64) (18423)</text>
  <path d="M 200,300 L -1.3,150.0 A 150,150 0 0 1 -0.9,150.0 Z" fill="DarkTurquoise" stroke="black" stroke-width="1"/>
  <rect x="370" y="124" width="20" height="30" fill="DarkTurquoise" stroke="black" stroke-width="1"/>
  <text x="400" y="2258" font-family="sans-serif" font-size="16">Windows Server 2022 (x86) (253)</text>
  <path d="M 200,300 L -0.9,150.0 A 150,150 0 0 1 -0.7,150.0 Z" fill="LightCoral" stroke="black" stroke-width="1"/>
  <rect x="370" y="125" width="20" height="30" fill="LightCoral" stroke="black" stroke-width="1"/>
  <text x="400" y="2288" font-family="sans-serif" font-size="16">Windows Server 2025 (amd64) (79)</text>
  <path d="M 200,300 L -0.7,150.0 A 150,150 0 0 1 -0.7,150.0 Z" fill="MistyRose" stroke="black" stroke-width="1"/>
  <rect x="370" y="126" width="20" height="30" fill="MistyRose" stroke="black" stroke-width="1"/>
  <text x="400" y="2318" font-family="sans-serif" font-size="16">Windows Server 2025 (x86) (1)</text>
  <path d="M 200,300 L -0.7,150.0 A 150,150 0 0 1 -0.7,150.0 Z" fill="SeaShell" stroke="black" stroke-width="1"/>
  <rect x="370" y="127" width="20" height="30" fill="SeaShell" stroke="black" stroke-width="1"/>
  <text x="400" y="2348" font-family="sans-serif" font-size="16">Windows Server version 2009 (amd64) (23)</text>
  <path d="M 200,300 L -0.7,150.0 A 150,150 0 0 1 -0.7,150.0 Z" fill="Blue" stroke="black" stroke-width="1"/>
  <rect x="370" y="128" width="20" height="30" fill="Blue" stroke="black" stroke-width="1"/>
  <text x="400" y="2378" font-family="sans-serif" font-size="16">Windows Vista (amd64) (1)</text>
  <path d="M 200,300 L -0.7,150.0 A 150,150 0 0 1 -0.6,150.0 Z" fill="DarkViolet" stroke="black" stroke-width="1"/>
  <rect x="370" y="129" width="20" height="30" fill="DarkViolet" stroke="black" stroke-width="1"/>
  <text x="400" y="2408" font-family="sans-serif" font-size="16">Windows Vista (x86) (26)</text>
  <path d="M 200,300 L -0.6,150.0 A 150,150 0 0 1 -0.6,150.0 Z" fill="LightCyan" stroke="black" stroke-width="1"/>
  <rect x="370" y="130" width="20" height="30" fill="LightCyan" stroke="black" stroke-width="1"/>
  <text x="400" y="2438" font-family="sans-serif" font-size="16">Windows XP (amd64) (1)</text>
  <path d="M 200,300 L -0.6,150.0 A 150,150 0 0 1 -0.5,150.0 Z" fill="Moccasin" stroke="black" stroke-width="1"/>
  <rect x="370" y="131" width="20" height="30" fill="Moccasin" stroke="black" stroke-width="1"/>
  <text x="400" y="2468" font-family="sans-serif" font-size="16">Windows XP (x86) (81)</text>
  <path d="M 200,300 L -0.5,150.0 A 150,150 0 0 1 -0.0,150.0 Z" fill="Sienna" stroke="black" stroke-width="1"/>
  <rect x="370" y="132" width="20" height="30" fill="Sienna" stroke="black" stroke-width="1"/>
  <text x="400" y="2498" font-family="sans-serif" font-size="16">z/OS (s390x) (257)</text>
</svg>
